HIERARCHY
ROOT joint_Root
{
	OFFSET 0.0 0.0 0.0
	CHANNELS 6 Xposition Yposition Zposition Zrotation Xrotation Yrotation 
	JOINT Hips
	{
		OFFSET 4.5925 91.4895 -427.239
		CHANNELS 6 Xposition Yposition Zposition Zrotation Xrotation Yrotation 
		JOINT Spine
		{
			OFFSET 15.7357 0.0 0.0
			CHANNELS 6 Xposition Yposition Zposition Zrotation Xrotation Yrotation 
			JOINT Chest
			{
				OFFSET 8.98455 -0.406207 0.0
				CHANNELS 6 Xposition Yposition Zposition Zrotation Xrotation Yrotation 
				JOINT Neck
				{
					OFFSET 16.3773 0.0 0.0
					CHANNELS 6 Xposition Yposition Zposition Zrotation Xrotation Yrotation 
					JOINT Head
					{
						OFFSET 6.45672 0.0 0.0
						CHANNELS 6 Xposition Yposition Zposition Zrotation Xrotation Yrotation 
						End Site
						{
							OFFSET 0.0 0.0 0.0
						}
					}
				}
				JOINT Shoulder_L
				{
					OFFSET 12.9942 -0.242716 4.98039
					CHANNELS 6 Xposition Yposition Zposition Zrotation Xrotation Yrotation 
					JOINT UpperArm_L
					{
						OFFSET 5.34809 0.0 0.0
						CHANNELS 6 Xposition Yposition Zposition Zrotation Xrotation Yrotation 
						JOINT LowerArm_L
						{
							OFFSET 24.3286 1.87007e-05 0.0
							CHANNELS 6 Xposition Yposition Zposition Zrotation Xrotation Yrotation 
							JOINT Hand_L
							{
								OFFSET 22.2916 0.0 0.0
								CHANNELS 6 Xposition Yposition Zposition Zrotation Xrotation Yrotation 
								End Site
								{
									OFFSET 0.0 0.0 0.0
								}
							}
						}
					}
				}
				JOINT Shoulder_R
				{
					OFFSET 12.9945 -0.242716 -4.98039
					CHANNELS 6 Xposition Yposition Zposition Zrotation Xrotation Yrotation 
					JOINT UpperArm_R
					{
						OFFSET -5.34813 0.0 0.0
						CHANNELS 6 Xposition Yposition Zposition Zrotation Xrotation Yrotation 
						JOINT LowerArm_R
						{
							OFFSET -24.3289 0.000322201 0.0
							CHANNELS 6 Xposition Yposition Zposition Zrotation Xrotation Yrotation 
							JOINT Hand_R
							{
								OFFSET -22.2915 -0.000108084 0.0
								CHANNELS 6 Xposition Yposition Zposition Zrotation Xrotation Yrotation 
								End Site
								{
									OFFSET 0.0 0.0 0.0
								}
							}
						}
					}
				}
			}
		}
		JOINT UpperLeg_L
		{
			OFFSET -2.19248 -6.46944 0.0
			CHANNELS 6 Xposition Yposition Zposition Zrotation Xrotation Yrotation 
			JOINT LowerLeg_L
			{
				OFFSET 39.0811 0.0 -1.23785e-05
				CHANNELS 6 Xposition Yposition Zposition Zrotation Xrotation Yrotation 
				JOINT Foot_L
				{
					OFFSET 40.9854 0.0 -1.26872e-05
					CHANNELS 6 Xposition Yposition Zposition Zrotation Xrotation Yrotation 
					JOINT Toes_L
					{
						OFFSET 11.7543 0.0 0.0
						CHANNELS 6 Xposition Yposition Zposition Zrotation Xrotation Yrotation 
						End Site
						{
							OFFSET 0.0 0.0 0.0
						}
					}
				}
			}
		}
		JOINT UpperLeg_R
		{
			OFFSET -2.19251 6.46944 0.0
			CHANNELS 6 Xposition Yposition Zposition Zrotation Xrotation Yrotation 
			JOINT LowerLeg_R
			{
				OFFSET -39.0811 -0.00228153 -0.0401928
				CHANNELS 6 Xposition Yposition Zposition Zrotation Xrotation Yrotation 
				JOINT Foot_R
				{
					OFFSET -40.9854 0.0 0.0
					CHANNELS 6 Xposition Yposition Zposition Zrotation Xrotation Yrotation 
					JOINT Toes_R
					{
						OFFSET -11.7543 0.0 0.0
						CHANNELS 6 Xposition Yposition Zposition Zrotation Xrotation Yrotation 
						End Site
						{
							OFFSET 0.0 0.0 0.0
						}
					}
				}
			}
		}
	}
}
MOTION
Frames:	6
Frame Time:	0.0333333
0.000000 0.000000 0.000000 0.000000 0.000000 -0.000000 0.473550 90.401900 1.368630 90.047800 -4.109800 11.112800 15.735700 0.000005 -0.000001 86.961600 81.215100 -88.062500 8.984550 -0.406207 -0.000000 9.771930 -0.944905 -2.119490 16.377300 -0.000001 -0.000001 3.375140 -4.159160 0.808170 6.456720 -0.000001 -0.000000 -10.213700 -2.864260 -4.078990 12.994200 -0.242716 4.980390 -92.081900 7.584120 -74.600700 5.348090 -0.000007 -0.000001 -57.378900 38.993600 -18.240800 24.328600 0.000019 0.000005 7.450000 22.397100 -18.941800 22.291600 -0.000001 0.000005 9.821130 5.335080 -0.934342 12.994500 -0.242716 -4.980390 88.619600 11.414100 -83.057500 -5.348130 -0.000001 -0.000004 -63.590700 33.121400 -11.687700 -24.328900 0.000322 -0.000009 1.604660 4.998870 -17.833300 -22.291500 -0.000108 -0.000004 12.355700 5.429510 -3.922520 -2.192480 -6.469440 -0.000000 -175.143000 -13.927600 1.898850 39.081100 -0.000007 -0.000012 -0.161257 0.260539 31.755100 40.985400 -0.000006 -0.000013 1.019870 5.409770 -72.278800 11.754300 -0.000000 0.000003 -0.000109 -0.001104 -16.619800 -2.192510 6.469440 -0.000001 171.650000 19.931400 -176.531000 -39.081100 -0.002282 -0.040193 -0.237092 0.397738 31.148900 -40.985400 0.000008 0.000006 2.469560 13.855300 -72.604400 -11.754300 -0.000006 -0.000006 -0.002678 -0.036906 -18.073900
0.000000 0.000000 0.000000 0.000000 0.000000 -0.000000 0.597867 90.389000 1.349150 90.038000 -4.169010 11.328100 15.735700 0.000005 -0.000001 86.985900 81.202700 -88.163300 8.984550 -0.406207 -0.000000 9.796640 -0.940379 -2.272450 16.377300 -0.000001 -0.000001 3.994060 -4.241000 0.711307 6.456720 -0.000001 -0.000000 -9.038100 -3.101640 -4.278260 12.994200 -0.242716 4.980390 -92.085500 7.589680 -74.585800 5.348090 -0.000007 -0.000001 -57.354000 39.233100 -18.399300 24.328600 0.000019 0.000005 7.507860 22.248300 -19.192100 22.291600 -0.000001 0.000005 9.848820 5.335430 -0.944679 12.994500 -0.242716 -4.980390 88.612000 11.384400 -83.001800 -5.348130 -0.000001 -0.000004 -63.699100 33.011300 -11.921400 -24.328900 0.000322 -0.000009 1.573040 4.765090 -18.304400 -22.291500 -0.000108 -0.000004 12.553900 5.435390 -4.124890 -2.192480 -6.469440 -0.000000 -175.195000 -13.884900 2.073160 39.081100 -0.000007 -0.000012 -0.157505 0.253740 31.829600 40.985400 -0.000006 -0.000013 1.082390 5.278750 -72.329100 11.754300 -0.000000 0.000003 -0.000114 -0.001150 -16.621600 -2.192510 6.469440 -0.000001 171.498000 19.881100 -176.361000 -39.081100 -0.002282 -0.040193 -0.236954 0.396615 31.206100 -40.985400 0.000008 0.000006 2.411510 13.945600 -72.584000 -11.754300 -0.000006 -0.000006 -0.002646 -0.036531 -18.058700
0.000000 0.000000 0.000000 0.000000 0.000000 -0.000000 0.731788 90.376300 1.295670 90.009800 -4.281470 11.414100 15.735700 0.000005 -0.000001 86.985700 81.269600 -88.228100 8.984550 -0.406207 -0.000000 9.662550 -0.933266 -2.404070 16.377300 -0.000001 -0.000001 4.793640 -4.292840 0.597362 6.456720 -0.000001 -0.000000 -7.785910 -3.282080 -4.534860 12.994200 -0.242716 4.980390 -92.111000 7.657010 -74.536200 5.348090 -0.000007 -0.000001 -57.366600 39.510100 -18.447300 24.328600 0.000019 0.000005 7.593570 22.045900 -19.553600 22.291600 -0.000001 0.000005 9.768350 5.334580 -0.919572 12.994500 -0.242716 -4.980390 88.606200 11.341700 -82.947100 -5.348130 -0.000001 -0.000004 -63.707800 33.012000 -12.276300 -24.328900 0.000322 -0.000009 1.507760 4.451320 -18.746100 -22.291500 -0.000108 -0.000004 12.514200 5.437560 -4.200470 -2.192480 -6.469440 -0.000000 -175.290000 -13.799500 2.060300 39.081100 -0.000007 -0.000012 -0.156821 0.251531 31.942400 40.985400 -0.000006 -0.000013 1.125500 5.051850 -72.366100 11.754300 -0.000000 0.000003 -0.000108 -0.001095 -16.619500 -2.192510 6.469440 -0.000001 171.440000 19.777900 -176.376000 -39.081100 -0.002282 -0.040193 -0.239120 0.399024 31.280300 -40.985400 0.000008 0.000006 2.334400 13.972600 -72.537600 -11.754300 -0.000006 -0.000006 -0.002778 -0.038060 -18.120900
0.000000 0.000000 0.000000 0.000000 0.000000 -0.000000 0.858572 90.378700 1.245340 90.019900 -4.434360 11.481400 15.735700 0.000005 -0.000001 87.057000 81.362000 -88.378500 8.984550 -0.406207 -0.000000 9.478990 -0.901653 -2.566190 16.377300 -0.000001 -0.000001 5.764870 -4.327810 0.451167 6.456720 -0.000001 -0.000000 -6.589590 -3.436350 -4.797640 12.994200 -0.242716 4.980390 -92.121200 7.649660 -74.451100 5.348090 -0.000007 -0.000001 -57.559000 39.720100 -18.519400 24.328600 0.000019 0.000005 7.653510 21.955400 -19.769000 22.291600 -0.000001 0.000005 9.736890 5.338990 -1.049670 12.994500 -0.242716 -4.980390 88.592400 11.292000 -82.847500 -5.348130 -0.000001 -0.000004 -63.669100 32.938700 -12.713700 -24.328900 0.000322 -0.000009 1.534440 4.418860 -19.183500 -22.291500 -0.000108 -0.000004 12.659100 5.437490 -4.198150 -2.192480 -6.469440 -0.000000 -175.361000 -13.910100 2.105650 39.081100 -0.000007 -0.000012 -0.153753 0.246576 31.946000 40.985400 -0.000006 -0.000013 1.205430 4.996510 -72.360000 11.754300 -0.000000 0.000003 -0.000118 -0.001184 -16.622800 -2.192510 6.469440 -0.000001 171.412000 19.535900 -176.423000 -39.081100 -0.002282 -0.040193 -0.232046 0.386756 31.321300 -40.985400 0.000008 0.000006 2.342590 13.924500 -72.497800 -11.754300 -0.000006 -0.000006 -0.002735 -0.037572 -18.101000
0.000000 0.000000 0.000000 0.000000 0.000000 -0.000000 0.988815 90.374300 1.203650 90.019500 -4.533140 11.577800 15.735700 0.000005 -0.000001 87.151200 81.457800 -88.545200 8.984550 -0.406207 -0.000000 9.289100 -0.862901 -2.715490 16.377300 -0.000001 -0.000001 6.780560 -4.285740 0.245911 6.456720 -0.000001 -0.000000 -5.367100 -3.604450 -5.055880 12.994200 -0.242716 4.980390 -92.109100 7.565390 -74.372700 5.348090 -0.000007 -0.000001 -57.734400 40.149700 -18.648100 24.328600 0.000019 0.000005 7.657640 21.629600 -20.039900 22.291600 -0.000001 0.000005 9.687150 5.340060 -1.081190 12.994500 -0.242716 -4.980390 88.586000 11.170400 -82.738700 -5.348130 -0.000001 -0.000004 -63.739600 32.499700 -13.088500 -24.328900 0.000322 -0.000009 1.689120 4.712120 -19.757900 -22.291500 -0.000108 -0.000004 12.773900 5.440520 -4.303920 -2.192480 -6.469440 -0.000000 -175.427000 -13.996800 2.160170 39.081100 -0.000007 -0.000012 -0.151555 0.242646 31.988900 40.985400 -0.000006 -0.000013 1.286350 4.915040 -72.374500 11.754300 -0.000000 0.000003 -0.000113 -0.001140 -16.621200 -2.192510 6.469440 -0.000001 171.310000 19.502800 -176.403000 -39.081100 -0.002282 -0.040193 -0.227336 0.378224 31.374500 -40.985400 0.000008 0.000006 2.355380 14.005900 -72.471100 -11.754300 -0.000006 -0.000006 -0.002782 -0.038116 -18.123200
0.000000 0.000000 0.000000 0.000000 0.000000 -0.000000 1.105580 90.366300 1.146920 89.998900 -4.635230 11.701300 15.735700 0.000005 -0.000001 87.274700 81.537500 -88.725800 8.984550 -0.406207 -0.000000 9.131680 -0.817697 -2.834430 16.377300 -0.000001 -0.000001 7.677900 -4.238890 0.069881 6.456720 -0.000001 -0.000000 -4.108320 -3.655330 -5.454470 12.994200 -0.242716 4.980390 -92.075400 7.431220 -74.348100 5.348090 -0.000007 -0.000001 -58.105500 40.332200 -18.678800 24.328600 0.000019 0.000005 7.762340 21.543700 -20.365500 22.291600 -0.000001 0.000005 9.647970 5.344250 -1.205350 12.994500 -0.242716 -4.980390 88.587100 11.000000 -82.634500 -5.348130 -0.000001 -0.000004 -63.829400 31.775400 -13.350300 -24.328900 0.000322 -0.000009 1.808190 4.765730 -20.817100 -22.291500 -0.000108 -0.000004 12.866500 5.436280 -4.156070 -2.192480 -6.469440 -0.000000 -175.444000 -14.055700 2.216690 39.081100 -0.000007 -0.000012 -0.151379 0.241643 32.065700 40.985400 -0.000006 -0.000013 1.364190 4.889050 -72.393800 11.754300 -0.000000 0.000003 -0.000118 -0.001181 -16.622700 -2.192510 6.469440 -0.000001 171.231000 19.423100 -176.365000 -39.081100 -0.002282 -0.040193 -0.229165 0.380502 31.422700 -40.985400 0.000008 0.000006 2.287690 14.090000 -72.413000 -11.754300 -0.000006 -0.000006 -0.002760 -0.037855 -18.112500
